<svg height="512" viewBox="0 0 64 64" width="512" xmlns="http://www.w3.org/2000/svg"><g id="Pipe-Tree_Way-Water-Gas-Oil" data-name="Pipe-Tree Way-Water-Gas-Oil"><path d="m61 35h-7a3.009 3.009 0 0 0 -3-3h-4a3.009 3.009 0 0 0 -3 3h-4v-4a3.009 3.009 0 0 0 3-3v-4a3.009 3.009 0 0 0 -3-3v-11a1 1 0 0 0 -1-1h-14a1 1 0 0 0 -1 1v11a3.009 3.009 0 0 0 -3 3v4a3.009 3.009 0 0 0 3 3v4h-4a3.009 3.009 0 0 0 -3-3h-4a3.009 3.009 0 0 0 -3 3h-7a1 1 0 0 0 -1 1v14a1 1 0 0 0 1 1h7a3.009 3.009 0 0 0 3 3h4a3.009 3.009 0 0 0 3-3h24a3.009 3.009 0 0 0 3 3h4a3.009 3.009 0 0 0 3-3h7a1 1 0 0 0 1-1v-14a1 1 0 0 0 -1-1zm-51 14h-6v-12h6zm8 2a1 1 0 0 1 -1 1h-4a1 1 0 0 1 -1-1v-16a1 1 0 0 1 1-1h4a1 1 0 0 1 1 1zm8-40h12v10h-12zm-3 17v-4a1 1 0 0 1 1-1h16a1 1 0 0 1 1 1v4a1 1 0 0 1 -1 1h-16a1 1 0 0 1 -1-1zm21 21h-24v-12h5a1 1 0 0 0 1-1v-5h12v5a1 1 0 0 0 1 1h5zm8 2a1 1 0 0 1 -1 1h-4a1 1 0 0 1 -1-1v-16a1 1 0 0 1 1-1h4a1 1 0 0 1 1 1zm8-2h-6v-12h6z"/><path d="m6 39h2v2h-2z"/><path d="m24 45h2v2h-2z"/><path d="m28 45h4v2h-4z"/><path d="m56 39h2v2h-2z"/></g></svg>