<svg id="Layer_1" enable-background="new 0 0 512 512" height="512" viewBox="0 0 512 512" width="512" xmlns="http://www.w3.org/2000/svg"><g><circle cx="415" cy="190.5" r="10"/><path d="m502 180.5h-42c-5.51 0-10 4.49-10 10 0 2.18.69 4.26 2 6v116h-100v-112h18c5.51 0 10-4.49 10-10s-4.49-10-10-10h-18v-20.5h30c5.523 0 10-4.477 10-10v-120c0-5.523-4.477-10-10-10h-30v-10c0-5.523-4.477-10-10-10h-61c-5.523 0-10 4.477-10 10v16h-30v-16c0-5.523-4.477-10-10-10h-61c-5.523 0-10 4.477-10 10v10h-30c-5.523 0-10 4.477-10 10v20h-30c-5.523 0-10 4.477-10 10v60c0 5.523 4.477 10 10 10h30v20c0 5.523 4.477 10 10 10h30v20.5h-150c-5.523 0-10 4.477-10 10v132c0 5.523 4.477 10 10 10h150v19.5h-30c-5.523 0-10 4.477-10 10v20h-30c-5.523 0-10 4.477-10 10v60c0 5.523 4.477 10 10 10h30v20c0 5.523 4.477 10 10 10h30v10c0 5.523 4.477 10 10 10h61c5.523 0 10-4.477 10-10v-16h30v16c0 5.523 4.477 10 10 10h61c5.523 0 10-4.477 10-10v-10h30c5.523 0 10-4.477 10-10v-120c0-5.523-4.477-10-10-10h-30v-19.5h150c5.523 0 10-4.477 10-10v-132c0-5.523-4.477-10-10-10zm-130 251.5h-20v-20h20zm0-332h-20v-20h20zm0 40h-20v-20h20zm0-100v20h-20v-20zm-232 372h20v20h-20zm0-332h20v20h-20zm0-40h20v20h-20zm-40 70v-40h20v40zm40 30v-20h20v20zm-120 60.5h20v112h-20zm40 112v-112h100v112zm80 59.5h20v20h-20zm-40 70v-40h20v40zm40 30v-20h20v20zm81 20h-41v-472h41zm20-26v-420h30v420zm91 26h-41v-472h41zm40-20h-20v-20h20zm0-100v20h-20v-20zm120-59.5h-20v-112h20z"/></g></svg>